<svg xmlns="http://www.w3.org/2000/svg" width="760" height="186" font-family="ui-sans-serif,system-ui,sans-serif" font-size="12">
<text x="16" y="24" font-size="14" font-weight="600">Mechanism recall: before (0.0000 on indirect-v1) vs after</text>
<rect x="240" y="38" width="10" height="10" fill="#94a3b8"/><text x="256" y="47" fill="#475569">before (Strategy A)</text>
<rect x="390" y="38" width="10" height="10" fill="#1d4ed8"/><text x="406" y="47" fill="#475569">after (ADR-019)</text>
<line x1="430.0" y1="58" x2="430.0" y2="160" stroke="#b91c1c" stroke-dasharray="4 3"/>
<text x="434.0" y="54" fill="#b91c1c" font-size="11">primary bound 0.50</text>
<text x="16" y="81" fill="#334155">retrieval_poisoning (n=60)</text>
<rect x="240" y="68" width="1.0" height="9" fill="#94a3b8" rx="1"/>
<rect x="240" y="79" width="278.7" height="9" fill="#1d4ed8" rx="1"/>
<text x="628" y="81" fill="#15803d">0.000→0.733 (+0.733)</text>
<text x="16" y="111" fill="#334155">tool_use_manipulation (n=60)</text>
<rect x="240" y="98" width="1.0" height="9" fill="#94a3b8" rx="1"/>
<rect x="240" y="109" width="278.7" height="9" fill="#1d4ed8" rx="1"/>
<text x="628" y="111" fill="#15803d">0.000→0.733 (+0.733)</text>
<text x="16" y="141" fill="#334155">safety_bypass (n=60)</text>
<rect x="240" y="128" width="1.0" height="9" fill="#94a3b8" rx="1"/>
<rect x="240" y="139" width="367.3" height="9" fill="#1d4ed8" rx="1"/>
<text x="628" y="141" fill="#15803d">0.000→0.967 (+0.967)</text>
</svg>
